<?xml version="1.0" encoding="UTF-8"?>
<!DOCTYPE svg PUBLIC "-//W3C//DTD SVG 1.1//EN" "http://www.w3.org/Graphics/SVG/1.1/DTD/svg11.dtd">
<svg xmlns="http://www.w3.org/2000/svg" version="1.1" width="2560px" height="1771px" style="shape-rendering:geometricPrecision; text-rendering:geometricPrecision; image-rendering:optimizeQuality; fill-rule:evenodd; clip-rule:evenodd" xmlns:xlink="http://www.w3.org/1999/xlink">
<g><path style="opacity:0.999" fill="#ff0000" d="M 1208.5,5.5 C 1413.25,5.20274 1617.91,9.03608 1822.5,17C 1928.03,21.0126 2033.37,28.0126 2138.5,38C 2172.11,41.2293 2205.44,46.2293 2238.5,53C 2343.13,78.3246 2418.29,139.491 2464,236.5C 2470.46,251.428 2475.8,266.761 2480,282.5C 2497.75,359.329 2510.42,436.995 2518,515.5C 2542.91,777.37 2540.91,1039.04 2512,1300.5C 2504.68,1365.4 2494.02,1429.73 2480,1493.5C 2450.08,1591.42 2387.91,1660.26 2293.5,1700C 2270.85,1708.83 2247.52,1715.16 2223.5,1719C 2146.6,1731.47 2069.27,1740.14 1991.5,1745C 1810.35,1756.6 1629.02,1762.93 1447.5,1764C 1173.31,1767.13 899.313,1761.46 625.5,1747C 541.248,1742.52 457.248,1735.19 373.5,1725C 339.235,1721.23 305.568,1714.57 272.5,1705C 178.822,1670.66 114.322,1606.82 79,1513.5C 70.4514,1486.64 63.7848,1459.31 59,1431.5C 42.0754,1334.85 31.0754,1237.51 26,1139.5C 14.1172,928.924 17.4506,718.591 36,508.5C 41.9585,445.124 50.6252,382.124 62,319.5C 78.5252,219.854 129.692,144.021 215.5,92C 254.93,69.5238 297.264,55.8571 342.5,51C 399.278,42.4444 456.278,35.7778 513.5,31C 651.294,19.9781 789.294,12.9781 927.5,10C 1021.32,7.88593 1114.99,6.38593 1208.5,5.5 Z"/></g>
<g><path style="opacity:1" fill="#fffefe" d="M 1033.5,508.5 C 1252.3,633.735 1470.97,759.235 1689.5,885C 1471.08,1010.63 1252.58,1136.13 1034,1261.5C 1033.5,1010.5 1033.33,759.5 1033.5,508.5 Z"/></g>
</svg>
